<mxfile host="app.diagrams.net" modified="2024-05-01T09:21:33.842Z" agent="Mozilla/5.0 (Windows NT 10.0; Win64; x64) AppleWebKit/537.36 (KHTML, like Gecko) Chrome/124.0.0.0 Safari/537.36" version="24.3.1" etag="tVVaoyiOwg0S9z2Q8CFz" type="github">
  <diagram name="StrÃ¡nka-1" id="WLGztBXFNgcQ8mA7BR_p">
    <mxGraphModel>
      <root>
        <mxCell id="0" />
        <mxCell id="1" parent="0" />
      </root>
    </mxGraphModel>
  </diagram>
</mxfile>
